<?xml version="1.0" encoding="utf-8"?>
<!-- Generator: Adobe Illustrator 24.1.1, SVG Export Plug-In . SVG Version: 6.00 Build 0)  -->
<svg version="1.1" id="Layer_1" xmlns="http://www.w3.org/2000/svg" xmlns:xlink="http://www.w3.org/1999/xlink" x="0px" y="0px"
	 viewBox="0 0 32 32" style="enable-background:new 0 0 32 32;" xml:space="preserve">
<style type="text/css">
	.st0{fill:#FFB100;}
</style>
<path class="st0" d="M29,0H3C1.4,0,0,1.3,0,3v26c0,1.6,1.4,3,3,3h26c1.6,0,3-1.4,3-3V3C32,1.3,30.6,0,29,0z M12,26H8V12h4V26z
	 M10,10c-1.1,0-2-0.9-2-2s0.9-2,2-2s2,0.9,2,2S11.1,10,10,10z M26,26h-4v-8c0-1.1-0.9-2-2-2s-2,0.9-2,2v8h-4V12h4v2.5
	c0.8-1.1,2.1-2.5,3.5-2.5c2.5,0,4.5,2.2,4.5,5V26z"/>
</svg>
