<?xml version="1.0" encoding="utf-8"?>
<!-- Generator: Adobe Illustrator 24.1.1, SVG Export Plug-In . SVG Version: 6.00 Build 0)  -->
<svg version="1.1" id="Layer_1" xmlns="http://www.w3.org/2000/svg" xmlns:xlink="http://www.w3.org/1999/xlink" x="0px" y="0px"
	 viewBox="0 0 353.2 90.85" style="enable-background:new 0 0 353.2 90.85;" xml:space="preserve">
<style type="text/css">
	.st0{fill:#472E57;stroke:#662D91;stroke-miterlimit:10;}
	.st1{fill:#F3EA18;stroke:#662D91;stroke-width:1.5;stroke-miterlimit:10;}
	.st2{fill:#472E57;stroke:#662D91;stroke-width:0.75;stroke-miterlimit:10;}
	.st3{fill:none;}
</style>
<g>
	<path class="st0" d="M17.5,58.67v26.58h10.41c1.39,0,2.37,0.23,2.96,0.7c0.58,0.47,0.87,1.08,0.87,1.85c0,0.73-0.29,1.34-0.87,1.82
		c-0.58,0.49-1.57,0.73-2.96,0.73H4.26c-1.34,0-2.31-0.24-2.89-0.73C0.79,89.13,0.5,88.53,0.5,87.8c0-0.77,0.29-1.39,0.87-1.85
		c0.58-0.46,1.55-0.7,2.89-0.7h7.59V24.43H4.26c-1.34,0-2.31-0.23-2.89-0.7c-0.58-0.46-0.87-1.08-0.87-1.85
		c0-0.77,0.29-1.39,0.87-1.85c0.58-0.46,1.55-0.7,2.89-0.7h34.13c7.03,0,12.95,2.01,17.77,6.04c4.81,4.03,7.22,8.57,7.22,13.63
		c0,3.64-1.49,7.07-4.47,10.29c-2.98,3.22-7.96,5.9-14.95,8.04c4.03,2.51,7.48,5.34,10.35,8.5c2.87,3.16,7.46,9.63,13.77,19.42h4.3
		c1.34,0,2.31,0.23,2.89,0.7c0.58,0.47,0.87,1.08,0.87,1.85c0,0.73-0.29,1.34-0.87,1.82c-0.58,0.49-1.55,0.73-2.89,0.73h-7.52
		c-6.99-11.29-12.39-18.85-16.22-22.7c-3.83-3.84-8.23-6.84-13.2-8.98H17.5z M21.45,52.54h12.75c4.08,0,7.79-0.73,11.11-2.18
		c3.32-1.45,5.74-3.16,7.24-5.12c1.5-1.96,2.26-3.96,2.26-6c0-3.05-1.57-5.96-4.71-8.72c-3.14-2.76-6.95-4.14-11.44-4.14H21.45
		V52.54z"/>
	<path class="st0" d="M124.03,73.63H85.99c0.65,3.57,2.67,6.45,6.06,8.63c3.39,2.18,7.59,3.27,12.6,3.27c2.78,0,5.7-0.34,8.75-1.02
		c3.05-0.68,5.54-1.58,7.46-2.7c0.56-0.33,1.05-0.49,1.47-0.49c0.47,0,0.89,0.14,1.24,0.41c0.36,0.27,0.53,0.6,0.53,0.97
		c0,0.37-0.24,0.73-0.71,1.09c-1.42,1.1-3.95,2.12-7.58,3.07c-3.63,0.95-7.35,1.43-11.18,1.43c-6.4,0-11.74-1.55-16.02-4.65
		c-4.28-3.1-6.42-6.86-6.42-11.26c0-4.01,2.01-7.45,6.02-10.33c4.01-2.87,8.98-4.31,14.91-4.31c6.1,0,11.12,1.47,15.06,4.42
		C122.15,65.12,124.09,68.94,124.03,73.63z M120.25,70.83c-0.74-3.05-2.69-5.52-5.84-7.43c-3.16-1.91-6.91-2.86-11.26-2.86
		s-8.1,0.94-11.24,2.83c-3.14,1.89-5.1,4.37-5.87,7.46H120.25z"/>
	<path class="st1" d="M160.83,49.32v34.75h14.66c0.92,0,1.57,0.17,1.96,0.51c0.38,0.34,0.58,0.79,0.58,1.36
		c0,0.53-0.19,0.98-0.58,1.33s-1.04,0.53-1.96,0.53h-33.06c-0.89,0-1.53-0.18-1.91-0.53c-0.39-0.36-0.58-0.8-0.58-1.33
		c0-0.56,0.19-1.01,0.58-1.36c0.38-0.34,1.02-0.51,1.91-0.51h14.66V53.1h-10.89c-0.89,0-1.53-0.18-1.93-0.53s-0.6-0.8-0.6-1.33
		c0-0.56,0.19-1.02,0.58-1.38c0.38-0.36,1.04-0.53,1.96-0.53H160.83z M150.2,23.02c0,2.64,2.14,4.78,4.78,4.78
		c2.64,0,4.78-2.14,4.78-4.78s-2.14-4.78-4.78-4.78C152.34,18.23,150.2,20.38,150.2,23.02z M162.73,20.84l6.82-1.19l6.82,1.18
		l0,2.37l-6.82,1.19l-6.82-1.18L162.73,20.84z M149.07,17.36l-5.13-4.65l-3.26-6.11l1.87-1.46l5.13,4.65l3.26,6.11L149.07,17.36z
		 M160.04,16.37l3.85-5.75l5.56-4.12l1.72,1.64l-3.85,5.75l-5.56,4.12L160.04,16.37z M154.54,14.35l-0.33-6.91l2.02-6.62l2.35,0.29
		l0.33,6.91l-2.02,6.62L154.54,14.35z M146.18,22.1l-6.91-0.46l-6.35-2.76l0.56-2.3l6.91,0.46l6.35,2.76L146.18,22.1z M148.56,27.69
		l-5.64,4.02l-6.66,1.88l-1.02-2.14l5.64-4.02l6.66-1.88L148.56,27.69z M170.7,38.27l-5.76-3.84l-4.12-5.56l1.63-1.72l5.76,3.84
		l4.12,5.56L170.7,38.27z M145.63,42.71l1.18-6.82l3.41-6.02l2.23,0.8l-1.18,6.82l-3.41,6.02L145.63,42.71z M159.83,44.51
		l-3.11-6.18l-0.85-6.87l2.27-0.69l3.11,6.18l0.85,6.87L159.83,44.51z"/>
	<path class="st0" d="M204.95,31.06v22.97c2.37-2.58,4.64-4.39,6.82-5.44c2.18-1.05,4.61-1.58,7.31-1.58c2.9,0,5.37,0.51,7.4,1.53
		c2.03,1.02,3.72,2.59,5.09,4.71c1.36,2.12,2.04,4.35,2.04,6.69v23.15h4.18c0.92,0,1.56,0.17,1.93,0.51
		c0.37,0.34,0.56,0.79,0.56,1.36c0,0.53-0.19,0.98-0.56,1.33c-0.37,0.36-1.02,0.53-1.93,0.53h-12.13c-0.92,0-1.57-0.18-1.96-0.53
		c-0.39-0.36-0.58-0.8-0.58-1.33c0-0.56,0.19-1.01,0.58-1.36c0.38-0.34,1.04-0.51,1.96-0.51h4.18V60.21c0-2.7-0.97-4.95-2.91-6.75
		c-1.94-1.81-4.64-2.71-8.11-2.71c-2.73,0-5.05,0.67-6.98,2c-1.39,0.95-3.69,3.18-6.89,6.71v23.64h4.22c0.89,0,1.52,0.17,1.91,0.51
		c0.38,0.34,0.58,0.79,0.58,1.36c0,0.53-0.19,0.98-0.58,1.33c-0.39,0.36-1.02,0.53-1.91,0.53H197c-0.89,0-1.53-0.18-1.91-0.53
		c-0.39-0.36-0.58-0.8-0.58-1.33c0-0.56,0.19-1.01,0.58-1.36c0.38-0.34,1.02-0.51,1.91-0.51h4.22V34.84h-5.02
		c-0.89,0-1.53-0.18-1.91-0.53c-0.39-0.36-0.58-0.81-0.58-1.38c0-0.53,0.19-0.98,0.58-1.33c0.38-0.36,1.02-0.53,1.91-0.53H204.95z"
		/>
	<path class="st2" d="M284.67,86.83v-5.38c-5.42,4.56-11.21,6.84-17.37,6.84c-4.47,0-7.97-1.13-10.49-3.4
		c-2.52-2.27-3.78-5.04-3.78-8.33c0-3.61,1.66-6.77,4.98-9.46c3.32-2.7,8.16-4.04,14.53-4.04c1.72,0,3.58,0.11,5.6,0.33
		c2.01,0.22,4.19,0.57,6.53,1.04v-6.04c0-2.04-0.95-3.82-2.84-5.33c-1.9-1.51-4.74-2.27-8.53-2.27c-2.9,0-6.98,0.84-12.22,2.53
		c-0.95,0.3-1.56,0.44-1.82,0.44c-0.47,0-0.88-0.18-1.22-0.53c-0.34-0.36-0.51-0.8-0.51-1.33c0-0.5,0.15-0.9,0.44-1.2
		c0.42-0.44,2.09-1.05,5.02-1.82c4.62-1.24,8.12-1.87,10.49-1.87c4.71,0,8.38,1.16,11.02,3.49c2.64,2.33,3.96,4.95,3.96,7.89v24.71
		h4.98c0.92,0,1.57,0.17,1.96,0.51c0.38,0.34,0.58,0.79,0.58,1.36c0,0.53-0.19,0.98-0.58,1.33c-0.39,0.36-1.04,0.53-1.96,0.53
		H284.67z M284.67,68.25c-1.75-0.5-3.6-0.87-5.55-1.11c-1.96-0.24-4.01-0.36-6.18-0.36c-5.42,0-9.66,1.17-12.71,3.51
		c-2.31,1.75-3.47,3.84-3.47,6.27c0,2.25,0.88,4.15,2.64,5.69c1.76,1.54,4.33,2.31,7.71,2.31c3.23,0,6.23-0.64,9-1.93
		c2.77-1.29,5.62-3.34,8.55-6.15V68.25z"/>
	<path class="st0" d="M318.58,48.35v5.64c2.61-2.64,4.96-4.46,7.07-5.47c2.1-1.01,4.47-1.51,7.11-1.51c2.84,0,5.44,0.61,7.78,1.82
		c1.66,0.89,3.16,2.36,4.51,4.42c1.35,2.06,2.02,4.17,2.02,6.33v23.51h3.15c0.89,0,1.53,0.17,1.91,0.51
		c0.38,0.34,0.58,0.79,0.58,1.36c0,0.53-0.19,0.98-0.58,1.33c-0.39,0.36-1.02,0.53-1.91,0.53h-10c-0.92,0-1.57-0.18-1.96-0.53
		c-0.39-0.36-0.58-0.8-0.58-1.33c0-0.56,0.19-1.01,0.58-1.36c0.38-0.34,1.04-0.51,1.96-0.51h3.11V60.21c0-2.64-0.96-4.87-2.89-6.69
		c-1.93-1.82-4.5-2.73-7.73-2.73c-2.46,0-4.59,0.5-6.4,1.49c-1.81,0.99-4.38,3.46-7.73,7.4v23.42h4.22c0.89,0,1.53,0.17,1.91,0.51
		c0.38,0.34,0.58,0.79,0.58,1.36c0,0.53-0.19,0.98-0.58,1.33c-0.39,0.36-1.02,0.53-1.91,0.53h-12.17c-0.89,0-1.53-0.18-1.91-0.53
		c-0.39-0.36-0.58-0.8-0.58-1.33c0-0.56,0.19-1.01,0.58-1.36c0.38-0.34,1.02-0.51,1.91-0.51h4.22V52.12h-3.15
		c-0.89,0-1.53-0.18-1.91-0.53c-0.39-0.36-0.58-0.81-0.58-1.38c0-0.53,0.19-0.98,0.58-1.33c0.38-0.36,1.02-0.53,1.91-0.53H318.58z"
		/>
</g>
<polygon class="st3" points="8.09,9.82 37.09,9.82 37.09,9.82 8.09,9.82 "/>
<polygon class="st3" points="15.09,2.82 -6.91,2.82 -6.91,2.82 15.09,2.82 "/>
<polygon class="st3" points="31.09,-6.18 -20.91,-6.18 -20.91,-6.18 31.09,-6.18 "/>
<rect x="-110.11" y="52.54" class="st3" width="26" height="13"/>
<rect x="-130.21" y="59.2" class="st3" width="337.05" height="10.29"/>
<rect x="206.85" y="64.34" class="st3" width="337.05" height="10.29"/>
</svg>
